<?xml version="1.0" encoding="UTF-8"?>
<svg width="130px" height="40px" viewBox="0 0 130 40" version="1.1" xmlns="http://www.w3.org/2000/svg" xmlns:xlink="http://www.w3.org/1999/xlink">
    <!-- Generator: Sketch 52.6 (67491) - http://www.bohemiancoding.com/sketch -->
    <title>Artboard</title>
    <desc>Created with Sketch.</desc>
    <g id="Artboard" stroke="none" stroke-width="1" fill="none" fill-rule="evenodd">
        <g id="WeAreDevelopers_RGB_BlackBG" transform="translate(1.000000, 1.000000)" fill="#FF164C">
            <polygon id="Path" points="128 14.7766133 89 0 89 9.20132377 116.236413 18.9895201 89 28.7777165 89 38 128 23.2233867 128 23.2233867"/>
            <polygon id="Path" points="58.4377593 0 48.5067427 26.5442694 38.5757261 0 38.5757261 0 29.3039419 0 29.2614108 0 29.2188797 0 19.2878631 26.5442694 9.35684647 0 0 0 14.9922199 37.979359 15.0134855 38 23.5622407 38 23.5622407 37.979359 33.8973029 11.8479087 44.2110996 37.979359 44.2110996 38 52.7811203 38 52.7811203 37.979359 63.094917 11.8479087 73.4299793 38 82 38 67.7733402 0"/>
        </g>
    </g>
</svg>